# xmcd
#
# Track frame offsets:
#	150
#	17783
#	32736
#	45011
#	60895
#	75946
#	88025
#	102014
#	114577
#	130713
#	143507
#	156691
#	172600
#	184881
#
# Disc length: 2646 seconds
#
# Revision: 0
# Processed by: cddbd v1.5.2PL0 Copyright (c) Steve Scherf et al.
# Submitted via: EasyCDDAExtractor 9.1.3.1
#
DISCID=9a0a540e
DTITLE=Lorrie Morgan - A Moment In Time
DYEAR=2009
DGENRE=Country
TTITLE0=Cry
TTITLE1=Are You Lonesome Tonight
TTITLE2=After The Fire Is Gone (with Tracy Lawrence)
TTITLE3=Leavin' On Your Mind
TTITLE4=Borrowed Angel
TTITLE5=Break It To Me Gently
TTITLE6=By The Time I Get To Phoenix
TTITLE7=Easy Lovin' (with Raul Malo)
TTITLE8='Til I Get It Right
TTITLE9=Alright I'll Sign The Papers
TTITLE10=I'm Always On A Mountain When I Fall
TTITLE11=Misty Blue
TTITLE12=Wine Me Up
TTITLE13=Lovin' On Backstreets
EXTD=
EXTT0=
EXTT1=
EXTT2=
EXTT3=
EXTT4=
EXTT5=
EXTT6=
EXTT7=
EXTT8=
EXTT9=
EXTT10=
EXTT11=
EXTT12=
EXTT13=
PLAYORDER=
